<?xml version="1.0" encoding="utf-8"?>
<!-- Generator: Adobe Illustrator 19.0.0, SVG Export Plug-In . SVG Version: 6.00 Build 0)  -->
<svg version="1.1" id="OBJECTS" xmlns="http://www.w3.org/2000/svg" xmlns:xlink="http://www.w3.org/1999/xlink" x="0px" y="0px"
	 viewBox="-265 357 80 80" style="enable-background:new -265 357 80 80;" xml:space="preserve">
<style type="text/css">
	.st0{fill:#434A54;}
</style>
<g>
	<path class="st0" d="M-225,362.1l23.9,53.6c0,0,6.8,16,13.5,16.3h-41.2c0,0,10.8-3,7.8-14l-14.3-32L-225,362.1z"/>
	<path class="st0" d="M-262.4,431.9c0,0,8.9-3.7,12.9-14.4c0,0-2.1,12.6,8.9,14.4L-262.4,431.9z"/>
	<g>
		<path class="st0" d="M-234.3,405.9c0,0.4-0.1,0.7-0.4,1l-7.3,7.3c-0.3,0.3-0.6,0.4-1,0.4c-0.4,0-0.7-0.1-1-0.4l-0.8-0.8
			c-0.3-0.3-0.4-0.6-0.4-1c0-0.4,0.1-0.7,0.4-1l3.3-3.3h-7.9c-0.4,0-0.7-0.1-1-0.4c-0.2-0.3-0.4-0.6-0.4-1v-1.4c0-0.4,0.1-0.7,0.4-1
			c0.2-0.3,0.6-0.4,1-0.4h7.9l-3.3-3.3c-0.3-0.3-0.4-0.6-0.4-1c0-0.4,0.1-0.7,0.4-1l0.8-0.8c0.3-0.3,0.6-0.4,1-0.4
			c0.4,0,0.7,0.1,1,0.4l7.3,7.3C-234.5,405.1-234.3,405.5-234.3,405.9z"/>
	</g>
</g>
</svg>
